<svg width="34" height="34" viewBox="0 0 34 34" fill="none" xmlns="http://www.w3.org/2000/svg">
<path d="M17 0C7.61144 0 0 7.61144 0 17C0 26.3886 7.61144 34 17 34C26.3886 34 34 26.3886 34 17C34 7.61144 26.3886 0 17 0ZM17 32.3905C8.51677 32.3905 1.60947 25.4832 1.60947 17C1.60947 8.51677 8.51677 1.60947 17 1.60947C25.4832 1.60947 32.3905 8.51677 32.3905 17C32.3905 25.4832 25.4832 32.3905 17 32.3905Z" fill="white"/>
<path d="M17.8048 16.666V7.27739C17.8048 6.84149 17.4359 6.47266 17 6.47266C16.5641 6.47266 16.1953 6.84149 16.1953 7.27739V17.0013C16.1953 17.2024 16.2959 17.4372 16.43 17.5713L22.9014 24.0427C23.0691 24.2103 23.2703 24.2774 23.4714 24.2774C23.6726 24.2774 23.8738 24.2103 24.0415 24.0427C24.3432 23.7409 24.3432 23.2044 24.0415 22.9026L17.8048 16.666Z" fill="white"/>
</svg>
