<svg width="25" height="32" viewBox="0 0 25 32" fill="none" xmlns="http://www.w3.org/2000/svg">
<path d="M12.5 1.14286C15.4679 1.14286 18.2582 2.09386 20.3568 3.82071C22.4554 5.54757 23.6111 7.84357 23.6111 10.2857C23.6111 13.3514 21.5198 17.9376 17.5634 23.5486C15.6294 26.2911 13.677 28.6653 12.4998 30.0436C11.3264 28.6699 9.38247 26.306 7.45113 23.569C3.48516 17.9486 1.38889 13.3554 1.38889 10.2857C1.38889 7.84357 2.54462 5.54757 4.64323 3.82071C6.74184 2.09386 9.53212 1.14286 12.5 1.14286ZM12.5 0C5.59644 0 0 4.60507 0 10.2857C0 18.2857 12.5 32 12.5 32C12.5 32 25 18.2857 25 10.2857C25 4.60507 19.4036 0 12.5 0Z" fill="white"/>
<path d="M12.4999 5.71484C9.43566 5.71484 6.94434 7.76484 6.94434 10.2863C6.94434 12.8077 9.43566 14.8577 12.4999 14.8577C15.5641 14.8577 18.0554 12.8077 18.0554 10.2863C18.0554 7.76484 15.5641 5.71484 12.4999 5.71484ZM12.4999 13.6363C10.2516 13.6363 8.42871 12.1363 8.42871 10.2863C8.42871 8.43627 10.2516 6.93627 12.4999 6.93627C14.7482 6.93627 16.5711 8.43627 16.5711 10.2863C16.5711 12.1363 14.7482 13.6363 12.4999 13.6363Z" fill="white"/>
</svg>
