<svg width="25" height="20" viewBox="0 0 25 20" fill="none" xmlns="http://www.w3.org/2000/svg">
<path d="M21.601 20H3.39905C2.49756 20 1.633 19.5952 0.995558 18.8746C0.358113 18.154 0 17.1766 0 16.1575V3.84246C0 2.82338 0.358113 1.84603 0.995558 1.12543C1.633 0.404829 2.49756 0 3.39905 0H21.601C22.5024 0 23.367 0.404829 24.0044 1.12543C24.6419 1.84603 25 2.82338 25 3.84246V16.1575C25 17.1766 24.6419 18.154 24.0044 18.8746C23.367 19.5952 22.5024 20 21.601 20ZM3.39905 0.960615C2.72294 0.960615 2.07451 1.26424 1.59643 1.80469C1.11835 2.34514 0.849762 3.07815 0.849762 3.84246V16.1575C0.849762 16.9219 1.11835 17.6549 1.59643 18.1953C2.07451 18.7358 2.72294 19.0394 3.39905 19.0394H21.601C22.2771 19.0394 22.9255 18.7358 23.4036 18.1953C23.8817 17.6549 24.1502 16.9219 24.1502 16.1575V3.84246C24.1502 3.07815 23.8817 2.34514 23.4036 1.80469C22.9255 1.26424 22.2771 0.960615 21.601 0.960615H3.39905Z" fill="white"/>
<path d="M12.5001 12.6795C11.7627 12.6844 11.044 12.418 10.4522 11.9206L0.526989 3.42399C0.473494 3.39119 0.426857 3.34578 0.390234 3.29083C0.353611 3.23589 0.327856 3.17269 0.314714 3.10552C0.301571 3.03834 0.301347 2.96876 0.314056 2.90148C0.326766 2.8342 0.352112 2.7708 0.388381 2.71555C0.424649 2.66031 0.470992 2.61451 0.524274 2.58127C0.577556 2.54803 0.636534 2.52812 0.697214 2.52288C0.757895 2.51764 0.818864 2.5272 0.875993 2.55091C0.933123 2.57462 0.98508 2.61192 1.02835 2.6603L10.9621 11.1377C11.4049 11.5164 11.9449 11.7213 12.5001 11.7213C13.0554 11.7213 13.5954 11.5164 14.0382 11.1377L23.9719 2.6603C24.016 2.61878 24.0671 2.58778 24.122 2.56918C24.177 2.55057 24.2347 2.54475 24.2917 2.55205C24.3487 2.55935 24.4039 2.57963 24.4538 2.61166C24.5036 2.64369 24.5473 2.68682 24.582 2.73843C24.6168 2.79005 24.6419 2.84908 24.6559 2.91198C24.6699 2.97487 24.6725 3.04033 24.6636 3.10439C24.6546 3.16845 24.6342 3.2298 24.6037 3.28473C24.5732 3.33966 24.5332 3.38703 24.486 3.42399L14.5481 11.9206C13.9563 12.418 13.2375 12.6844 12.5001 12.6795Z" fill="white"/>
<path d="M0.675421 17.9918C0.590117 17.9905 0.507111 17.9603 0.437205 17.9051C0.3673 17.8498 0.313733 17.772 0.283478 17.6818C0.253222 17.5917 0.247679 17.4933 0.267569 17.3995C0.28746 17.3057 0.331863 17.2209 0.394999 17.156L8.20856 9.27418C8.29364 9.18946 8.405 9.14643 8.51815 9.15454C8.63129 9.16264 8.73696 9.22123 8.81189 9.3174C8.88683 9.41358 8.9249 9.53947 8.91773 9.66737C8.91056 9.79528 8.85873 9.91473 8.77365 9.99944L0.960091 17.8717C0.881538 17.95 0.78016 17.9928 0.675421 17.9918ZM24.3243 17.9918C24.2196 17.9928 24.1182 17.95 24.0396 17.8717L16.2261 9.99944C16.1811 9.95864 16.1439 9.90791 16.1169 9.85034C16.0898 9.79278 16.0733 9.72959 16.0686 9.66461C16.0638 9.59964 16.0708 9.53425 16.0891 9.47243C16.1074 9.4106 16.1366 9.35363 16.175 9.30499C16.2134 9.25636 16.2602 9.21707 16.3125 9.18952C16.3647 9.16197 16.4214 9.14674 16.4791 9.14475C16.5367 9.14277 16.5941 9.15407 16.6478 9.17797C16.7014 9.20188 16.7502 9.23788 16.7912 9.28378L24.6047 17.156C24.6885 17.2408 24.7392 17.3597 24.7456 17.4867C24.7519 17.6136 24.7135 17.7383 24.6387 17.8333C24.599 17.883 24.5505 17.9228 24.4963 17.9501C24.4422 17.9774 24.3836 17.9916 24.3243 17.9918Z" fill="white"/>
</svg>
