<svg width="25" height="25" viewBox="0 0 25 25" fill="none" xmlns="http://www.w3.org/2000/svg">
<path d="M23.8586 18.1392C22.8218 17.0739 19.8747 15.0781 17.9431 15.0781C17.4958 15.0781 17.1052 15.1776 16.7856 15.3835C15.8411 15.9872 15.0884 16.456 14.7262 16.456C14.5274 16.456 14.3144 16.2784 13.8457 15.8736L13.7676 15.8026C12.468 14.6733 12.1911 14.3821 11.6869 13.8565L11.559 13.7216C11.4667 13.6293 11.3886 13.544 11.3105 13.4659C10.8702 13.0114 10.5507 12.6847 9.42154 11.4062L9.37183 11.3494C8.83213 10.7386 8.47706 10.3409 8.45576 10.0497C8.43445 9.76562 8.683 9.30398 9.31502 8.4446C10.082 7.40767 10.1104 6.12926 9.40734 4.64489C8.84633 3.47301 7.93026 2.35085 7.12071 1.36364L7.04969 1.27841C6.35376 0.426136 5.54421 0 4.64234 0C3.64105 0 2.81019 0.539773 2.36991 0.823864C2.3344 0.84517 2.2989 0.873579 2.26339 0.894886C1.27631 1.51989 0.55907 2.37926 0.289219 3.25284C-0.115557 4.56676 -0.385407 6.27131 1.55326 9.81534C3.22917 12.8835 4.74886 14.9432 7.16331 17.4219C9.43574 19.7514 10.4441 20.5043 12.7024 22.1378C15.2162 23.956 17.6307 25 19.3208 25C20.8902 25 22.1258 25 23.887 22.8764C25.7333 20.6463 24.9664 19.2827 23.8586 18.1392ZM23.0419 22.1094C21.6216 23.8281 20.805 23.8281 19.3279 23.8281C17.8863 23.8281 15.6494 22.8338 13.3486 21.179C11.1472 19.5881 10.1672 18.8565 7.95866 16.5909C5.62232 14.1974 4.15235 12.2017 2.53324 9.24006C0.82182 6.10795 1.01356 4.73722 1.36152 3.60795C1.54616 3.00426 2.10006 2.35795 2.8528 1.8892C2.88831 1.8679 2.92382 1.83949 2.96642 1.81818C3.34279 1.5767 3.96771 1.17188 4.64944 1.17188C5.21755 1.17188 5.72174 1.45597 6.20463 2.04545L6.27565 2.13068C8.08649 4.34659 9.49965 6.30682 8.43445 7.75568C7.68171 8.77131 7.28404 9.46023 7.34795 10.1705C7.40476 10.8594 7.86635 11.3778 8.56228 12.1591L8.61199 12.2159C9.7553 13.5085 10.082 13.8494 10.5365 14.3111C10.6146 14.3892 10.6927 14.4744 10.785 14.5668L10.9128 14.7017C11.4383 15.2486 11.7295 15.5469 13.0645 16.7188L13.1426 16.7898C13.7107 17.2869 14.1297 17.6491 14.7404 17.6491C15.3725 17.6491 16.0684 17.2514 17.3892 16.4062C17.5242 16.321 17.7159 16.2713 17.9573 16.2713C19.4983 16.2713 22.1542 18.0327 23.0845 18.9915C23.9367 19.858 24.3628 20.5114 23.0419 22.1094Z" fill="white"/>
</svg>
