<svg width="25" height="25" viewBox="0 0 25 25" fill="none" xmlns="http://www.w3.org/2000/svg">
<path d="M23.4375 7.8125H21.3542V5.20833C21.3542 5.0702 21.2993 4.93772 21.2016 4.84005C21.1039 4.74237 20.9715 4.6875 20.8333 4.6875H18.75V0.520833C18.75 0.3827 18.6951 0.250224 18.5975 0.152549C18.4998 0.0548734 18.3673 0 18.2292 0L6.77083 0C6.6327 0 6.50022 0.0548734 6.40255 0.152549C6.30487 0.250224 6.25 0.3827 6.25 0.520833V4.6875H4.16667C4.02853 4.6875 3.89606 4.74237 3.79838 4.84005C3.70071 4.93772 3.64583 5.0702 3.64583 5.20833V7.8125H1.5625C1.1481 7.8125 0.750671 7.97712 0.457646 8.27015C0.16462 8.56317 0 8.9606 0 9.375L0 19.7917C0 20.2061 0.16462 20.6035 0.457646 20.8965C0.750671 21.1895 1.1481 21.3542 1.5625 21.3542H6.25V24.4792C6.25 24.6173 6.30487 24.7498 6.40255 24.8475C6.50022 24.9451 6.6327 25 6.77083 25H18.2292C18.3673 25 18.4998 24.9451 18.5975 24.8475C18.6951 24.7498 18.75 24.6173 18.75 24.4792V21.3542H23.4375C23.8519 21.3542 24.2493 21.1895 24.5424 20.8965C24.8354 20.6035 25 20.2061 25 19.7917V9.375C25 8.9606 24.8354 8.56317 24.5424 8.27015C24.2493 7.97712 23.8519 7.8125 23.4375 7.8125ZM20.3125 5.72917V7.8125H18.75V5.72917H20.3125ZM7.29167 1.04167H17.7083V7.8125H7.29167V1.04167ZM4.6875 5.72917H6.25V7.8125H4.6875V5.72917ZM21.875 8.85417V11.9792H3.125V8.85417H21.875ZM4.6875 20.3125V16.6667H6.25V20.3125H4.6875ZM17.7083 23.9583H7.29167V16.6667H17.7083V23.9583ZM18.75 20.3125V16.6667H20.3125V20.3125H18.75ZM23.9583 19.7917C23.9583 19.9298 23.9035 20.0623 23.8058 20.16C23.7081 20.2576 23.5756 20.3125 23.4375 20.3125H21.3542V16.1458C21.3542 16.0077 21.2993 15.8752 21.2016 15.7775C21.1039 15.6799 20.9715 15.625 20.8333 15.625H4.16667C4.02853 15.625 3.89606 15.6799 3.79838 15.7775C3.70071 15.8752 3.64583 16.0077 3.64583 16.1458V20.3125H1.5625C1.42437 20.3125 1.29189 20.2576 1.19422 20.16C1.09654 20.0623 1.04167 19.9298 1.04167 19.7917V9.375C1.04167 9.23687 1.09654 9.10439 1.19422 9.00671C1.29189 8.90904 1.42437 8.85417 1.5625 8.85417H2.08333V12.5C2.08333 12.6381 2.13821 12.7706 2.23588 12.8683C2.33356 12.966 2.46603 13.0208 2.60417 13.0208H22.3958C22.534 13.0208 22.6664 12.966 22.7641 12.8683C22.8618 12.7706 22.9167 12.6381 22.9167 12.5V8.85417H23.4375C23.5756 8.85417 23.7081 8.90904 23.8058 9.00671C23.9035 9.10439 23.9583 9.23687 23.9583 9.375V19.7917Z" fill="white"/>
<path d="M4.31807 10.787C4.39657 10.8666 4.49858 10.9188 4.60903 10.9359C4.71947 10.953 4.8325 10.9342 4.9314 10.8821C5.0303 10.83 5.10983 10.7476 5.15824 10.6468C5.20665 10.5461 5.22137 10.4324 5.20023 10.3227C5.17909 10.2129 5.1232 10.1129 5.04083 10.0374C4.95845 9.96183 4.85397 9.91479 4.7428 9.9032C4.63164 9.89161 4.5197 9.91609 4.42351 9.97302C4.32733 10.0299 4.25202 10.1163 4.20869 10.2193C4.16881 10.3142 4.15791 10.4187 4.17737 10.5198C4.19684 10.6208 4.2458 10.7138 4.31807 10.787ZM15.6254 17.7089H9.37536C9.23722 17.7089 9.10475 17.7638 9.00707 17.8615C8.9094 17.9591 8.85452 18.0916 8.85452 18.2297C8.85452 18.3679 8.9094 18.5004 9.00707 18.598C9.10475 18.6957 9.23722 18.7506 9.37536 18.7506H15.6254C15.7635 18.7506 15.896 18.6957 15.9936 18.598C16.0913 18.5004 16.1462 18.3679 16.1462 18.2297C16.1462 18.0916 16.0913 17.9591 15.9936 17.8615C15.896 17.7638 15.7635 17.7089 15.6254 17.7089ZM15.6254 19.7922H9.37536C9.23722 19.7922 9.10475 19.8471 9.00707 19.9448C8.9094 20.0425 8.85452 20.1749 8.85452 20.3131C8.85452 20.4512 8.9094 20.5837 9.00707 20.6814C9.10475 20.779 9.23722 20.8339 9.37536 20.8339H15.6254C15.7635 20.8339 15.896 20.779 15.9936 20.6814C16.0913 20.5837 16.1462 20.4512 16.1462 20.3131C16.1462 20.1749 16.0913 20.0425 15.9936 19.9448C15.896 19.8471 15.7635 19.7922 15.6254 19.7922ZM15.6254 21.8756H9.37536C9.23722 21.8756 9.10475 21.9305 9.00707 22.0281C8.9094 22.1258 8.85452 22.2583 8.85452 22.3964C8.85452 22.5346 8.9094 22.667 9.00707 22.7647C9.10475 22.8624 9.23722 22.9173 9.37536 22.9173H15.6254C15.7635 22.9173 15.896 22.8624 15.9936 22.7647C16.0913 22.667 16.1462 22.5346 16.1462 22.3964C16.1462 22.2583 16.0913 22.1258 15.9936 22.0281C15.896 21.9305 15.7635 21.8756 15.6254 21.8756Z" fill="white"/>
</svg>
