<svg width="36" height="21" viewBox="0 0 36 21" fill="none" xmlns="http://www.w3.org/2000/svg">
<path d="M1.40234 2.82657H7.03123C7.03123 2.82657 10.2819 11.1266 13.3637 11.1266C13.9407 11.1266 14.0673 10.0891 14.0673 6.97656C14.0673 3.86407 13.2371 2.82657 12.6601 2.82657C12.6601 2.2594 13.7577 1.44324 16.8818 1.44324C20.0058 1.44324 19.6962 1.52624 19.6962 2.82657V8.35989C19.6962 9.96455 20.231 11.1266 21.1034 11.1266C21.9759 11.1266 27.0419 4.98456 27.4359 2.82657H33.7684C33.7684 3.55973 28.1395 11.2096 28.1395 11.8182C28.1395 12.4269 33.7684 18.0432 33.7684 18.7349C33.7684 19.4265 32.5441 19.4265 30.954 19.4265H27.4359C26.6057 19.4265 22.9891 15.2765 21.1034 15.2765C19.2178 15.2765 20.7094 19.4265 18.9926 19.4265H16.1782C10.9433 19.4265 2.10595 6.85206 1.40234 2.82657Z" stroke="url(#paint0_linear_3040_583)" stroke-width="2.5" stroke-linecap="round" stroke-linejoin="round"/>
<defs>
<linearGradient id="paint0_linear_3040_583" x1="1.40234" y1="10.4349" x2="33.7684" y2="10.4349" gradientUnits="userSpaceOnUse">
<stop stop-color="#007ECB"/>
<stop offset="1" stop-color="#003F65"/>
</linearGradient>
</defs>
</svg>
