<svg width="27" height="23" viewBox="0 0 27 23" fill="none" xmlns="http://www.w3.org/2000/svg">
<path d="M26.1705 2.15098C26.1706 1.94527 26.1163 1.7432 26.0132 1.56534C25.91 1.38749 25.7616 1.24021 25.5831 1.13849C25.4046 1.03678 25.2024 0.984275 24.9971 0.986318C24.7918 0.988361 24.5907 1.04488 24.4143 1.15013C23.7339 1.55586 23.0013 1.86658 22.2369 2.07367C21.1454 1.13526 19.7531 0.621745 18.3147 0.626993C16.7368 0.628813 15.2213 1.24493 14.0882 2.34525C12.9552 3.44557 12.2933 4.94395 12.2424 6.52401C9.13157 6.02703 6.31215 4.40036 4.32178 1.95422C4.20185 1.80845 4.04869 1.69371 3.87522 1.61967C3.70175 1.54564 3.51305 1.51449 3.32504 1.52884C3.13714 1.54434 2.95583 1.60546 2.7968 1.70692C2.63777 1.80838 2.50581 1.94712 2.41231 2.11115C1.93282 2.94945 1.65743 3.88924 1.60851 4.85418C1.5596 5.81912 1.73852 6.78202 2.13077 7.66469L2.1285 7.66696C1.95221 7.77574 1.80672 7.92801 1.70595 8.10922C1.60518 8.29042 1.55249 8.4945 1.55294 8.70193C1.5508 8.87304 1.56105 9.04409 1.58359 9.21372C1.70232 10.6791 2.35057 12.0508 3.40678 13.0715C3.33513 13.2083 3.2914 13.358 3.27814 13.5118C3.26488 13.6657 3.28237 13.8207 3.32958 13.9677C3.79005 15.405 4.76931 16.6185 6.07571 17.3706C4.74844 17.8848 3.31531 18.0641 1.90259 17.8926C1.64111 17.8598 1.37625 17.9169 1.15145 18.0547C0.926647 18.1924 0.755252 18.4026 0.665379 18.6508C0.575506 18.899 0.572491 19.1704 0.65683 19.4205C0.741168 19.6707 0.907852 19.8846 1.12954 20.0274C3.55923 21.5951 6.38822 22.4287 9.27825 22.4283C12.5556 22.4652 15.7532 21.416 18.3738 19.4439C20.9943 17.4718 22.8908 14.6873 23.7683 11.5236C24.1788 10.1454 24.3883 8.71508 24.3905 7.27688C24.3905 7.20068 24.3905 7.12221 24.3893 7.04374C24.9963 6.38797 25.4664 5.61743 25.7723 4.77727C26.0781 3.93711 26.2135 3.04423 26.1705 2.15098ZM22.3266 5.89163C22.1346 6.11913 22.0374 6.41198 22.0553 6.70936C22.0666 6.90152 22.0655 7.09485 22.0655 7.27688C22.0631 8.49221 21.8853 9.7008 21.5376 10.8651C20.8209 13.557 19.2233 15.9301 17.0005 17.6043C14.7778 19.2785 12.0585 20.157 9.27825 20.0991C8.27954 20.0994 7.28427 19.9818 6.31302 19.7488C7.55154 19.3489 8.70958 18.7324 9.73348 17.9279C9.92206 17.7792 10.0601 17.5756 10.1286 17.3451C10.1971 17.1146 10.1927 16.8686 10.1161 16.6407C10.0395 16.4128 9.89439 16.2143 9.70067 16.0723C9.50695 15.9303 9.27412 15.8519 9.03413 15.8477C8.06791 15.8327 7.14525 15.4425 6.46055 14.7593C6.63425 14.7263 6.80681 14.6854 6.97823 14.6365C7.22933 14.5649 7.44908 14.4107 7.60208 14.1988C7.75508 13.9868 7.83244 13.7295 7.82169 13.4681C7.81094 13.2068 7.71271 12.9567 7.54282 12.7581C7.37294 12.5594 7.14127 12.4239 6.88514 12.3732C6.32428 12.2623 5.79653 12.0232 5.34289 11.6747C4.88926 11.3261 4.52196 10.8775 4.26956 10.3636C4.47965 10.3923 4.69108 10.4101 4.90302 10.417C5.15479 10.4208 5.40125 10.3443 5.60675 10.1986C5.81226 10.0528 5.96616 9.8453 6.0462 9.60612C6.1229 9.36476 6.11895 9.10494 6.03496 8.86604C5.95096 8.62714 5.7915 8.42219 5.58075 8.28227C5.06943 7.94101 4.65059 7.47801 4.36173 6.93476C4.07286 6.3915 3.92301 5.78495 3.92558 5.16943C3.92558 5.0921 3.92785 5.01476 3.93239 4.93856C6.53781 7.37291 9.91721 8.80794 13.4752 8.99084C13.6548 8.99793 13.8336 8.96404 13.9982 8.89173C14.1629 8.81942 14.3089 8.71058 14.4254 8.57344C14.5407 8.43497 14.6223 8.27158 14.6639 8.09613C14.7054 7.92068 14.7058 7.73796 14.6649 7.56236C14.5984 7.28444 14.5645 6.9997 14.5638 6.71392C14.5649 5.71763 14.9604 4.76245 15.6636 4.05796C16.3668 3.35348 17.3202 2.95725 18.3147 2.95619C18.8263 2.95482 19.3327 3.05973 19.8018 3.26429C20.271 3.46885 20.6927 3.76863 21.0403 4.1447C21.1744 4.28921 21.3432 4.39695 21.5306 4.45767C21.7179 4.5184 21.9177 4.53009 22.1109 4.49163C22.5884 4.39852 23.0591 4.27313 23.5197 4.11632C23.2055 4.76032 22.804 5.35774 22.3266 5.89163Z" fill="#0079CB"/>
</svg>
